<svg xmlns="http://www.w3.org/2000/svg" viewBox="0 0 311.69 243.79"><title>logoAsset 1</title><g id="Layer_2" data-name="Layer 2"><g id="Get_Started_8"><g id="Logo"><g id="Content"><path d="M155.84,5.61H129.67a2.18,2.18,0,0,0-2.18,2.64l8.2,58.57a2.18,2.18,0,0,1-1.66,2.6L96.3,77.68a2.18,2.18,0,0,1-2.38-1.07L52.05,1.12a2.18,2.18,0,0,0-2.6-1l-48,16A2.18,2.18,0,0,0,.35,19.35L76.68,138.11a2.18,2.18,0,0,0,1.83,1h77.33" style="fill:#26bcb9"/><path d="M155.84,217.62H149.6a2.18,2.18,0,0,0-2.18,2.44l2.73,21.81a2.18,2.18,0,0,0,2.18,1.92h3.51" style="fill:#26bcb9"/><path d="M155.84,182.73H132.46a2.18,2.18,0,0,0-2.18,2.7l5.47,21.81a2.18,2.18,0,0,0,2.18,1.66h17.9" style="fill:#26bcb9"/><path d="M155.84,147.84H106.66a2.18,2.18,0,0,0-2,2.94l8.2,21.81a2.18,2.18,0,0,0,2,1.42h41" style="fill:#26bcb9"/><path d="M155.84,5.61H182a2.18,2.18,0,0,1,2.18,2.64l-8.24,58.6a2.18,2.18,0,0,0,1.66,2.6l37.73,8.26a2.18,2.18,0,0,0,2.38-1.07L259.64,1.12a2.18,2.18,0,0,1,2.6-1l48,16a2.18,2.18,0,0,1,1.13,3.25L235,138.11a2.18,2.18,0,0,1-1.83,1H155.84" style="fill:#1d998b"/><path d="M155.84,217.62h6.26a2.18,2.18,0,0,1,2.18,2.44l-2.73,21.81a2.18,2.18,0,0,1-2.18,1.92h-3.53" style="fill:#1d998b"/><path d="M155.84,182.73h23.38a2.18,2.18,0,0,1,2.18,2.7l-5.52,21.74a2.18,2.18,0,0,1-2.18,1.66H155.84" style="fill:#1d998b"/><path d="M155.84,147.84H205a2.18,2.18,0,0,1,2.18,2.94L199,172.59a2.18,2.18,0,0,1-2,1.42H155.84" style="fill:#1d998b"/><path d="M157.28,122.71,183.18,99.9a2.18,2.18,0,0,0-1.44-3.82H129.86a2.18,2.18,0,0,0-1.44,3.82l26,22.81A2.18,2.18,0,0,0,157.28,122.71Z" style="fill:#1b1b1b"/><polyline points="155.84 97.92 129.75 97.92 155.84 120.64" style="fill:#383838"/><polyline points="155.84 97.92 181.92 97.92 155.84 120.64" style="fill:#144b5f"/></g></g></g></g></svg>
