<svg xmlns="http://www.w3.org/2000/svg" viewBox="0 0 142.93 111.79"><defs><style>.cls-1{fill:#26bcb9;}.cls-2{fill:#1d998b;}.cls-3{fill:#1b1b1b;}.cls-4{fill:#383838;}.cls-5{fill:#144b5f;}</style></defs><title>norm_logoAsset 1</title><g id="Layer_2" data-name="Layer 2"><g id="Content"><path class="cls-1" d="M71.46,2.57h-12a1,1,0,0,0-1,1.21l3.76,26.86a1,1,0,0,1-.76,1.19l-17.3,3.79a1,1,0,0,1-1.09-.49L23.87.51A1,1,0,0,0,22.68.05L.68,7.38A1,1,0,0,0,.16,8.87l35,54.46a1,1,0,0,0,.84.46H71.46"/><path class="cls-1" d="M71.46,99.79H68.6a1,1,0,0,0-1,1.12l1.25,10a1,1,0,0,0,1,.88h1.61"/><path class="cls-1" d="M71.46,83.79H60.74a1,1,0,0,0-1,1.24l2.51,10a1,1,0,0,0,1,.76h8.21"/><path class="cls-1" d="M71.46,67.79H48.91A1,1,0,0,0,48,69.14l3.76,10a1,1,0,0,0,.94.65h18.8"/><path class="cls-2" d="M71.46,2.57h12a1,1,0,0,1,1,1.21L80.68,30.65a1,1,0,0,0,.76,1.19l17.3,3.79a1,1,0,0,0,1.09-.49L119.06.51a1,1,0,0,1,1.19-.46l22,7.33a1,1,0,0,1,.52,1.49l-35,54.46a1,1,0,0,1-.84.46H71.46"/><path class="cls-2" d="M71.46,99.79h2.87a1,1,0,0,1,1,1.12l-1.25,10a1,1,0,0,1-1,.88H71.46"/><path class="cls-2" d="M71.46,83.79H82.18a1,1,0,0,1,1,1.24L80.65,95a1,1,0,0,1-1,.76H71.46"/><path class="cls-2" d="M71.46,67.79H94A1,1,0,0,1,95,69.14l-3.76,10a1,1,0,0,1-.94.65H71.46"/><path class="cls-3" d="M72.12,56.27,84,45.81a1,1,0,0,0-.66-1.75H59.55a1,1,0,0,0-.66,1.75L70.8,56.27A1,1,0,0,0,72.12,56.27Z"/><polyline class="cls-4" points="71.46 44.9 59.5 44.9 71.46 55.32"/><polyline class="cls-5" points="71.46 44.9 83.42 44.9 71.46 55.32"/></g></g></svg>
